<?xml version="1.0" encoding="UTF-8"?>
<svg width="364px" height="66px" viewBox="0 0 364 66" version="1.1" xmlns="http://www.w3.org/2000/svg" xmlns:xlink="http://www.w3.org/1999/xlink">
    <!-- Generator: Sketch 51.1 (57501) - http://www.bohemiancoding.com/sketch -->
    <title>Group 96</title>
    <desc>Created with Sketch.</desc>
    <defs>
        <path d="M22.0658139,0.402356704 L40.8462647,11.1068447 C41.4047095,11.4251472 41.749503,12.0185415 41.749503,12.6613301 L41.749503,34.2238138 C41.749503,34.8444798 41.4278528,35.4208108 40.8996026,35.7466606 L22.0888579,47.3500185 C21.3411869,47.8112173 20.4005495,47.8242061 19.6404291,47.3838275 L0.892306868,36.5220326 C0.340017324,36.2020615 4.2819332e-14,35.612112 4.01900735e-14,34.973829 L2.93098879e-14,12.8485823 C2.86648115e-14,12.2102993 0.340017324,11.6203498 0.892306868,11.3003788 L19.6885023,0.410732465 C20.423014,-0.0148096456 21.3283219,-0.0179992325 22.0658139,0.402356704 Z M18.39224,14.9635376 L11.7217584,18.8278743 L16.9938139,21.8188189 L16.9938139,32.051996 L25.1818614,36.7590955 L25.1818614,18.8278743 L18.39224,14.9635376 Z" id="path-1"></path>
    </defs>
    <g id="Page-1" stroke="none" stroke-width="1" fill="none" fill-rule="evenodd">
        <g id="Group-96" transform="translate(32.000000, 10.000000)">
            <g id="Group-2-Copy-3">
                <mask id="mask-2" fill="white">
                    <use xlink:href="#path-1"></use>
                </mask>
                <use id="Mask" fill="#E99C29" xlink:href="#path-1"></use>
                <polygon id="Path-10" fill="#F7C340" mask="url(#mask-2)" points="6.25488666 8.1404503 25.2553261 18.8622194 33.4254575 15.7571954 43.0926382 12.0832241 20.0219028 -2.1576913"></polygon>
                <polygon id="Path-12" fill="#F1BC37" mask="url(#mask-2)" points="-1.21889902 36.3249585 17.0036701 32.0550055 32.9475828 41.2861963 19.9993289 51.5530005"></polygon>
                <path d="M25.1879674,18.8397195 L25.1879674,45.821227 C36.9254316,43.1886984 43.2577735,40.6175387 44.1849932,38.1077481 C45.1122129,35.5979574 45.9677629,25.8624869 46.751643,8.90133648 L25.1879674,18.8397195 Z" id="Path-11" fill="#F9D676" mask="url(#mask-2)"></path>
            </g>
            <path d="M74.9985439,13.3525734 L93.487609,13.3525734 C94.1463979,13.3525734 94.6804519,13.8866273 94.6804519,14.5454163 L94.6804519,17.3144781 L85.9428776,17.3144781 L85.9428776,34.962963 L81.9766749,34.962963 L81.9766749,17.3144781 L72.612858,17.3144781 L74.9985439,13.3525734 Z M101.777868,17.7777778 L111.111864,17.7777778 C112.24507,17.7777778 113.214245,18.1829685 114.019418,18.9933622 C114.824591,19.8037559 115.227172,20.7792151 115.227172,21.9197691 L115.227172,31.0441558 C115.227172,32.1847099 114.824591,33.1601691 114.019418,33.9705628 C113.214245,34.7809564 112.24507,35.1861472 111.111864,35.1861472 L101.777868,35.1861472 C100.644661,35.1861472 99.6754862,34.7809564 98.8703132,33.9705628 C98.0651403,33.1601691 97.6625598,32.1847099 97.6625598,31.0441558 L97.6625598,21.9197691 C97.6625598,20.7792151 98.0651403,19.8037559 98.8703132,18.9933622 C99.6754862,18.1829685 100.644661,17.7777778 101.777868,17.7777778 Z M102.732142,21.6296296 C102.073353,21.6296296 101.539299,22.1636836 101.539299,22.8224726 L101.539299,30.0960457 C101.539299,30.7548347 102.073353,31.2888887 102.732142,31.2888887 L110.068126,31.2888887 C110.726915,31.2888887 111.260969,30.7548347 111.260969,30.0960457 L111.260969,22.8224726 C111.260969,22.1636836 110.726915,21.6296296 110.068126,21.6296296 L102.732142,21.6296296 Z M133.537311,17.5545936 C135.418611,17.5545936 136.546954,17.5545936 136.922338,17.5545936 C137.485415,17.5545936 137.698889,18.2758887 137.279084,18.6867043 C136.859279,19.0975198 130.513439,24.9070298 130.354442,25.0636667 C130.108823,25.3056404 130.108823,25.6631944 130.276619,25.92975 C130.444415,26.1963055 137.492768,33.7086227 137.761711,34.0591725 C138.030654,34.4097222 137.761711,34.962963 137.279084,34.962963 C136.957333,34.962963 135.908883,34.962963 134.133732,34.962963 C129.907391,30.2837277 127.731147,27.8824133 127.605,27.7590198 C127.415779,27.5739294 127.099585,27.5739294 126.908215,27.7217602 C126.780634,27.8203141 126.306436,28.2047756 125.485621,28.8751447 L125.485621,34.962963 L121.579061,34.962963 L121.579061,11.8518519 L124.292778,11.8518519 C124.951567,11.8518519 125.485621,12.3859058 125.485621,13.0446948 L125.485621,24.2778259 M155.873295,17.5545936 C157.006501,17.5545936 157.975677,17.9597843 158.78085,18.770178 C159.586023,19.5805716 159.988603,20.5560309 159.988603,21.6965849 L159.988603,27.0468877 C159.988603,27.7056767 159.454549,28.2397306 158.79576,28.2397306 L148.794198,28.2397306 L145.986823,28.2397306 L145.986823,30.2306858 C145.986823,30.708261 146.18631,31.2359664 146.916402,31.2359664 L159.988603,31.2359664 L157.602917,34.962963 L146.539299,34.962963 C145.406093,34.962963 144.436918,34.5577722 143.631745,33.7473785 C142.826572,32.9369849 142.423991,31.9615257 142.423991,30.8209716 L142.423991,21.6965849 C142.423991,20.5560309 142.826572,19.5805716 143.631745,18.770178 C144.436918,17.9597843 145.406093,17.5545936 146.539299,17.5545936 L155.873295,17.5545936 Z M146.56912,21.3333333 L156.111864,21.3333333 C156.441258,21.3333333 156.708285,21.6003603 156.708285,21.9297548 L156.708285,23.9961711 C156.708285,24.3255656 156.441258,24.5925926 156.111864,24.5925926 L146.56912,24.5925926 C146.239726,24.5925926 145.972699,24.3255656 145.972699,23.9961711 L145.972699,21.9297548 C145.972699,21.6003603 146.239726,21.3333333 146.56912,21.3333333 Z M180.17747,17.5545936 C181.310676,17.5545936 182.279852,17.9597843 183.085025,18.770178 C183.890197,19.5805716 184.292778,20.5560309 184.292778,21.6965849 L184.292778,34.962963 L180.386217,34.962963 L180.386217,22.3345631 C180.386217,21.6965849 180.057327,21.4864839 179.418023,21.4864839 L171.043733,21.4864839 C170.301045,21.4864839 170.038305,21.6965849 170.038305,22.3345631 L170.038305,34.962963 L166.131745,34.962963 L166.131745,17.5545936 L180.17747,17.5545936 Z M193.77588,31.0310726 L193.77588,34.962963 L189.869319,34.962963 L189.869319,31.0310726 L193.77588,31.0310726 Z M209.849438,21.4864839 L203.109876,21.4864839 L203.109876,30.2958623 C203.109876,30.8209716 203.221224,31.0310726 203.657037,31.0310726 L208.656596,31.0310726 C209.315384,31.0310726 209.849438,31.5651266 209.849438,32.2239156 L209.849438,34.962963 L203.318624,34.962963 C202.165536,34.962963 201.191391,34.5577722 200.396158,33.7473785 C199.600926,32.9369849 199.203315,31.9615257 199.203315,30.8209716 L199.203315,21.4930556 L193.6401,21.3879175 L196.221208,17.2887731 L199.203315,17.2858796 L199.203315,11.8518519 L201.917033,11.8518519 C202.575822,11.8518519 203.109876,12.3859058 203.109876,13.0446948 L203.109876,17.5545936 L208.656596,17.5545936 C209.315384,17.5545936 209.849438,18.0886475 209.849438,18.7474365 L209.849438,21.4864839 Z M219.302719,17.5545936 L230.694369,17.5545936 L228.222947,21.4864839 L219.891685,21.4864839 C219.302719,21.4864839 219.093972,21.6965849 219.093972,22.2311198 L219.093972,34.962963 L215.187411,34.962963 L215.187411,21.6965849 C215.187411,20.5560309 215.589992,19.5805716 216.395165,18.770178 C217.200338,17.9597843 218.169513,17.5545936 219.302719,17.5545936 Z M248.109876,17.5545936 C249.243082,17.5545936 250.212258,17.9597843 251.017431,18.770178 C251.822604,19.5805716 252.225184,20.5560309 252.225184,21.6965849 L252.225184,34.962963 L238.77588,34.962963 C237.642674,34.962963 236.673499,34.5577722 235.868326,33.7473785 C235.063153,32.9369849 234.660572,31.9615257 234.660572,30.8209716 L234.660572,26.6635118 C234.660572,25.3459338 235.72868,24.2778259 237.046258,24.2778259 L248.318624,24.2778259 L248.318624,22.2679398 C248.318624,21.6965849 248.109876,21.4864839 247.435771,21.4864839 L234.434409,21.4864839 L236.879067,17.5545936 L248.109876,17.5545936 Z M239.014448,27.8518519 L247.960771,27.8518519 C248.290165,27.8518519 248.557192,28.1188788 248.557192,28.4482733 L248.557192,30.8109859 C248.557192,31.1403804 248.290165,31.4074074 247.960771,31.4074074 L239.014448,31.4074074 C238.685054,31.4074074 238.418027,31.1403804 238.418027,30.8109859 L238.418027,28.4482733 C238.418027,28.1188788 238.685054,27.8518519 239.014448,27.8518519 Z M271.757987,11.8518519 L274.471705,11.8518519 C275.130494,11.8518519 275.664548,12.3859058 275.664548,13.0446948 L275.664548,32.5772771 C275.664548,33.894855 274.59644,34.962963 273.278862,34.962963 L262.781844,34.962963 C261.648638,34.962963 260.679463,34.5577722 259.87429,33.7473785 C259.069117,32.9369849 258.666536,31.9615257 258.666536,30.8209716 L258.666536,21.6965849 C258.666536,20.5560309 259.069117,19.5805716 259.87429,18.770178 C260.679463,17.9597843 261.648638,17.5545936 262.781844,17.5545936 L271.757987,17.5545936 L271.757987,11.8518519 Z M263.76594,21.9259259 C263.107151,21.9259259 262.573097,22.4599799 262.573097,23.1187689 L262.573097,29.8293795 C262.573097,30.4881685 263.107151,31.0222224 263.76594,31.0222224 L270.326576,31.0222224 C270.985365,31.0222224 271.519419,30.4881685 271.519419,29.8293795 L271.519419,23.1187689 C271.519419,22.4599799 270.985365,21.9259259 270.326576,21.9259259 L263.76594,21.9259259 Z M295.435919,17.5545936 C296.569126,17.5545936 297.538301,17.9597843 298.343474,18.770178 C299.148647,19.5805716 299.551227,20.5560309 299.551227,21.6965849 L299.551227,27.0468877 C299.551227,27.7056767 299.017173,28.2397306 298.358384,28.2397306 L288.356822,28.2397306 L285.549447,28.2397306 L285.549447,30.2306858 C285.549447,30.708261 285.748934,31.2359664 286.479026,31.2359664 L299.551227,31.2359664 L297.165541,34.962963 L286.101923,34.962963 C284.968717,34.962963 283.999542,34.5577722 283.194369,33.7473785 C282.389196,32.9369849 281.986615,31.9615257 281.986615,30.8209716 L281.986615,21.6965849 C281.986615,20.5560309 282.389196,19.5805716 283.194369,18.770178 C283.999542,17.9597843 284.968717,17.5545936 286.101923,17.5545936 L295.435919,17.5545936 Z M286.131745,21.3333333 L295.674488,21.3333333 C296.003883,21.3333333 296.27091,21.6003603 296.27091,21.9297548 L296.27091,23.9961711 C296.27091,24.3255656 296.003883,24.5925926 295.674488,24.5925926 L286.131745,24.5925926 C285.80235,24.5925926 285.535323,24.3255656 285.535323,23.9961711 L285.535323,21.9297548 C285.535323,21.6003603 285.80235,21.3333333 286.131745,21.3333333 Z M64.2629574,35.395544 L60.3330453,35.395544 L60.3330453,19.8450403 L56.6600398,19.8450403 L60.4614986,13.6296296 L64.2629574,13.6296296 L64.2629574,35.395544 Z" id="1Token.trade" fill="#424242"></path>
        </g>
    </g>
</svg>